<svg xmlns="http://www.w3.org/2000/svg" viewBox="0 0 56.69 56.69"><defs><style>.cls-1{fill:none;}.cls-2{fill:#ce574e;}.cls-3{fill:#fff;}</style></defs><g id="Calque_2" data-name="Calque 2"><g id="Calque_1-2" data-name="Calque 1"><g id="Browser"><rect class="cls-1" width="56.69" height="56.69"/><path id="window" class="cls-2" d="M11.35,13.28h34a2.38,2.38,0,0,1,2.38,2.38V42a1.43,1.43,0,0,1-1.43,1.43H10.4A1.43,1.43,0,0,1,9,42V15.66a2.38,2.38,0,0,1,2.38-2.38Z"/><path class="cls-3" d="M46.29,44.13H10.4A2.14,2.14,0,0,1,8.26,42V15.66a3.09,3.09,0,0,1,3.09-3.09h34a3.09,3.09,0,0,1,3.09,3.09V42A2.14,2.14,0,0,1,46.29,44.13ZM11.35,14a1.68,1.68,0,0,0-1.67,1.68V42a.72.72,0,0,0,.72.72H46.29A.72.72,0,0,0,47,42V15.66A1.68,1.68,0,0,0,45.34,14Z"/><g id="top"><path class="cls-3" d="M11.35,13.28h34a2.38,2.38,0,0,1,2.38,2.38v1.82a0,0,0,0,1,0,0H9a0,0,0,0,1,0,0V15.66A2.38,2.38,0,0,1,11.35,13.28Z"/><circle class="cls-2" cx="11.7" cy="15.51" r="0.59"/><circle class="cls-2" cx="13.94" cy="15.51" r="0.59"/><circle class="cls-2" cx="16.21" cy="15.51" r="0.59"/><rect class="cls-2" x="37.9" y="14.47" width="8.24" height="2.07" rx="1.03"/></g></g></g></g></svg>